# xmcd
#
# Track frame offsets:
#	150
#	14797
#	29162
#	43955
#	57690
#	70570
#	88295
#	100307
#	112180
#	127002
#	140462
#	152912
#	165362
#	177062
#	188950
#	212937
#	226162
#	241300
#	259812
#	269237
#
# Disc length: 3797 seconds
# Revision: 1
# Processed by: cddbd v1.5.2PL0 Copyright (c) Steve Scherf et al.
# Submitted via: dBpowerAMP V12.0
#
DISCID=3a0ed314
DTITLE=Various Artist - The Sound Of Branson Missouri, Disc 3
DYEAR=1997
DGENRE=Country
TTITLE0=The Bellamy Brothers - Let Your Love Flow
TTITLE1=Andy Williams - (Where Do I Begin) Love Story
TTITLE2=Tony Orlando - Tie a Yellow Ribbion Round the Ole Oak Tree
TTITLE3=Jim Nabors - The Most Beautiful Girl
TTITLE4=John Davidson - Save the Last Dance for Me
TTITLE5=The Everly Brothers - Born Yesterday
TTITLE6=Bobby Vinton - Roses Are Red (My Love)
TTITLE7=The Osmonds - Down By the Lazy River
TTITLE8=Andy Williams - Unchained Melody
TTITLE9=Tony Orlando and Dawn - Knock Three Times
TTITLE10=Larry Gatlin and the Gatlin Brothers - All the Gold in California
TTITLE11=Charley Pride - Lovesick Blues
TTITLE12=Glen Campbell - Dreams of the Everyday Housewife
TTITLE13=Roy Clark - Rocky Top
TTITLE14=Willie Nelson - Medley: Mr. Record Man/Hello Walls/One Day at a Time
TTITLE15=Barbara Mandrell - Hey, Good Lookin'
TTITLE16=Waylon Jennings - Bob Wills Is Still the King
TTITLE17=Johnny Cash - Sunday Morning Coming Down
TTITLE18=Merle Haggard and The Strangers - Mama Tried
TTITLE19=Tanya Tucker - Delta Dawn
EXTD=
EXTT0=
EXTT1=
EXTT2=
EXTT3=
EXTT4=
EXTT5=
EXTT6=
EXTT7=
EXTT8=
EXTT9=
EXTT10=
EXTT11=
EXTT12=
EXTT13=
EXTT14=
EXTT15=
EXTT16=
EXTT17=
EXTT18=
EXTT19=
PLAYORDER=
